# AST/ASF file generated using VICON BodyLanguage
# -----------------------------------------------
:version 1.10
:name VICON
:units
  mass 1.0
  length 0.45
  angle deg
:documentation
   .ast/.asf automatically generated from VICON data using
   VICON BodyBuilder and BodyLanguage model FoxedUp or BRILLIANT.MOD
:root
   order TX TY TZ RX RY RZ
   axis XYZ
   position 0 0 0  
   orientation 0 0 0 
:bonedata
  begin
     id 1 
     name lhipjoint
     direction 0.566809 -0.746272 0.349008 
     length 2.40479 
     axis 0 0 0  XYZ
  end
  begin
     id 2 
     name lfemur
     direction 0.34202 -0.939693 0  
     length 7.1578  
     axis 0 0 20  XYZ
    dof rx ry rz
    limits (-160.0 20.0)
           (-70.0 70.0)
           (-60.0 70.0)
  end
  begin
     id 3 
     name ltibia
     direction 0.34202 -0.939693 0   
     length 7.49137   
     axis 0 0 20   XYZ
    dof rx
    limits (-10.0 170.0)
  end
  begin
     id 4 
     name lfoot
     direction 0.0665746 -0.182912 0.980873   
     length 2.36784   
     axis -90 7.62852e-016 20   XYZ
    dof rx rz
    limits (-45.0 90.0)
           (-70.0 20.0)
  end
  begin
     id 5 
     name ltoes
     direction 1.53601e-011 -4.22058e-011 1   
     length 1.18966   
     axis -90 7.62852e-016 20   XYZ
    dof rx
    limits (-90.0 20.0)
  end
  begin
     id 6 
     name rhipjoint
     direction -0.550236 -0.756381 0.353735   
     length 2.37265  
     axis 0 0 0  XYZ 
  end
  begin
     id 7 
     name rfemur
     direction -0.34202 -0.939693 0   
     length 7.43386   
     axis 0 0 -20   XYZ
    dof rx ry rz
    limits (-160.0 20.0)
           (-70.0 70.0)
           (-70.0 60.0)
  end
  begin
     id 8 
     name rtibia
     direction -0.34202 -0.939693 0   
     length 7.50908   
     axis 0 0 -20   XYZ
    dof rx
    limits (-10.0 170.0)
 end
 begin
     id 9 
     name rfoot
     direction -0.0683029 -0.187661 0.979856   
     length 2.41173  
     axis -90 -7.62852e-016 -20   XYZ
    dof rx rz
    limits (-45.0 90.0)
           (-20.0 70.0)
  end
  begin
     id 10 
     name rtoes
     direction -1.53528e-011 -4.21968e-011 1   
     length 1.21082   
     axis -90 -7.62852e-016 -20   XYZ
    dof rx
    limits (-90.0 20.0)
  end
  begin
     id 11 
     name lowerback
     direction 0.013823 0.995423 -0.0945635   
     length 2.04495   
     axis 0 0 0   XYZ
    dof rx ry rz
    limits (-20.0 45.0)
           (-30.0 30.0)
           (-30.0 30.0)
  end
  begin
     id 12 
     name upperback
     direction 0.0276657 0.9994 -0.020853   
     length 2.05008   
     axis 0 0 0   XYZ
    dof rx ry rz
    limits (-20.0 45.0)
           (-30.0 30.0)
           (-30.0 30.0)
  end
  begin
     id 13 
     name thorax
     direction 0.019782 0.999531 0.0233827   
     length 2.06488   
     axis 0 0 0   XYZ
    dof rx ry rz
    limits (-20.0 45.0)
           (-30.0 30.0)
           (-30.0 30.0)
  end
  begin
     id 14 
     name lowerneck
     direction -0.0308541 0.994709 0.0979874   
     length 1.75553   
     axis 0 0 0   XYZ
    dof rx ry rz
    limits (-20.0 45.0)
           (-30.0 30.0)
           (-30.0 30.0)
  end
  begin
     id 15 
     name upperneck
     direction 0.0588398 0.995804 -0.0700903   
     length 1.76878   
     axis 0 0 0   XYZ
    dof rx ry rz
    limits (-20.0 45.0)
           (-30.0 30.0)
           (-30.0 30.0)
  end
  begin
     id 16
     name head
     direction 0.0209966 0.999159 -0.0352225  
     length 1.77193  
     axis 0 0 0   XYZ
    dof rx ry rz
    limits (-20.0 45.0)
           (-30.0 30.0)
           (-30.0 30.0)
  end
  begin
     id 17 
     name lclavicle
     direction 0.938182 0.335073 -0.0868338  
     length 3.58396  
     axis 0 0 0   XYZ
    dof ry rz
    limits (-20.0 10.0)
           (0.0 20.0)
  end
  begin
     id 18 
     name lhumerus
     direction 1 -4.48971e-011 -1.26313e-017   
     length 4.983   
     axis 180 -30 -90   XYZ
    dof rx ry rz
    limits (-60.0 90.0)
           (-90.0 90.0)
           (-90.0 90.0)
  end
  begin
     id 19
     name lradius
     direction 1 -4.48948e-011 -5.89033e-027   
     length 3.48356   
     axis 180 -30 -90   XYZ
    dof rx
    limits (-10.0 170.0)
  end
  begin
     id 20
     name lwrist
     direction 1 -4.48977e-011 -1.48983e-026   
     length 1.74178   
     axis 9.0955e-015 90 90   XYZ
    dof ry
    limits (-180.0 0.0)
 end
  begin
     id 21 
     name lhand
     direction 1 -4.49046e-011 -2.98066e-026   
     length 0.715259   
     axis 1.90115e-014 90 90   XYZ
    dof rx rz
    limits (-90.0 90.0)
           (-45.0 45.0)
  end
  begin
     id 22 
     name lfingers
     direction 1 -4.48907e-011 -5.95731e-026   
     length 0.576661   
     axis 3.80223e-014 90 90   XYZ
    dof rx
    limits (0.0 90.0)
  end
  begin
     id 23
     name lthumb
     direction 0.707107 -6.34963e-011 0.707107   
     length 0.827973   
     axis -90 45 -3.84942e-014   XYZ
    dof rx rz
    limits (-45.0 45.0)
           (-45.0 45.0)
  end
  begin
     id 24 
     name rclavicle
     direction -0.909637 0.398485 -0.11735   
     length 3.44819  
     axis 0 0 0   XYZ 
    dof ry rz
    limits (-10.0 20.0)
           (-20.0 0.0)
  end
  begin
     id 25 
     name rhumerus
     direction -1 -4.48978e-011 -1.09333e-027  
     length 5.2419   
     axis 180 30 90   XYZ
    dof rx ry rz
    limits (-90.0 60.0)
           (-90.0 90.0)
           (-90.0 90.0)
  end
  begin
     id 26 
     name rradius
     direction -1 -4.48953e-011 -7.61841e-027   
     length 3.44417   
     axis 180 30 90   XYZ
    dof rx
    limits (-10.0 170.0)
  end
  begin
     id 27 
     name rwrist
     direction -1 -4.48977e-011 -1.48983e-026   
     length 1.72209   
     axis 9.0955e-015 -90 -90   XYZ
    dof ry
    limits (-180.0 0.0)
  end
  begin
     id 28
     name rhand
     direction -1 -4.49027e-011 -2.98038e-026   
     length 0.622529   
     axis 1.90115e-014 -90 -90   XYZ
    dof rx rz
    limits (-90.0 90.0)
           (-45.0 45.0)
  end
  begin
     id 29
     name rfingers
     direction -1 -4.48838e-011 -5.95531e-026   
     length 0.501899   
     axis 3.80223e-014 -90 -90   XYZ
    dof rx
    limits (0.0 90.0)
  end
  begin
     id 30
     name rthumb
     direction -0.707107 -6.34937e-011 0.707107   
     length 0.720629   
     axis -90 -45 3.84942e-014   XYZ
    dof rx rz
    limits (-45.0 45.0)
           (-45.0 45.0)
  end
:hierarchy
  begin
    root lhipjoint rhipjoint lowerback
    lhipjoint lfemur
    lfemur ltibia
    ltibia lfoot
    lfoot ltoes
    rhipjoint rfemur
    rfemur rtibia
    rtibia rfoot
    rfoot rtoes
    lowerback upperback
    upperback thorax
    thorax lowerneck lclavicle rclavicle
    lowerneck upperneck
    upperneck head
    lclavicle lhumerus
    lhumerus lradius
    lradius lwrist
    lwrist lhand lthumb
    lhand lfingers
    rclavicle rhumerus
    rhumerus rradius
    rradius rwrist
    rwrist rhand rthumb
    rhand rfingers
  end

#!OML:ASF F:\VICON\USERDATA\Patient Classification 1\PLAYGROUND\JustinFriday\JustinFriday.ASF
:FULLY-SPECIFIED
:DEGREES
1
root 25.166 18.231 20.4175 172.725 -56.6434 -162.138
lowerback 11.5761 -1.42879 -2.30993
upperback 2.0536 -2.17488 3.07851
thorax -4.13018 -1.09341 4.861
lowerneck 4.45589 -17.0443 -14.0984
upperneck 9.28188 -26.9644 21.7088
head 7.05776 -13.4367 6.80327
rclavicle -1.03567e-013 3.89618e-014
rhumerus -25.0464 2.59563 -87.7292
rradius 42.4636
rwrist -17.1724
rhand -16.9644 -21.9141
rfingers 7.12502
rthumb 9.26965 -51.6904
lclavicle -1.03567e-013 3.89618e-014
lhumerus -25.2314 -0.385487 82.7097
lradius 21.0571
lwrist -3.76334
lhand -12.1082 -7.54218
lfingers 7.12502
lthumb 13.9528 21.9696
rfemur -23.7523 -0.930444 28.8493
rtibia 32.3834
rfoot -15.0883 -14.3678
rtoes 18.2818
lfemur -20.016 9.37234 -12.4616
ltibia 31.6819
lfoot -20.5699 21.875
ltoes 15.6782
2
root 25.1913 18.222 20.4329 172.371 -56.0168 -161.916
lowerback 11.7123 -1.42154 -1.85205
upperback 2.12808 -2.11927 3.07416
thorax -4.14985 -1.07587 4.59161
lowerneck 4.4319 -17.1195 -13.8724
upperneck 9.32401 -27.0434 21.5206
head 7.02893 -13.4699 6.70257
rclavicle -9.93923e-016 -2.78299e-014
rhumerus -25.1486 2.04214 -87.5608
rradius 41.7592
rwrist -17.2522
rhand -16.8907 -22.3856
rfingers 7.12502
rthumb 9.34084 -52.1587
lclavicle -9.93923e-016 -2.78299e-014
lhumerus -24.8764 0.0173909 82.1763
lradius 20.7693
lwrist -3.91969
lhand -12.3491 -7.46954
lfingers 7.12502
lthumb 13.7205 22.0581
rfemur -23.2556 -2.17608 29.3444
rtibia 32.912
rfoot -14.7523 -15.0815
rtoes 15.6368
lfemur -19.835 9.57793 -12.1325
ltibia 31.7972
lfoot -20.8696 22.033
ltoes 15.8415
3
root 25.2127 18.2307 20.442 173.172 -55.6325 -162.748
lowerback 11.52 -1.41198 -2.066
upperback 2.07555 -2.12883 2.92998
thorax -4.09555 -1.0751 4.55506
lowerneck 4.54698 -17.2018 -13.5692
upperneck 9.3319 -27.1462 21.3377
head 6.95996 -13.5255 6.6072
rclavicle 1.19271e-014 2.46493e-014
rhumerus -25.3209 1.05551 -87.2406
rradius 40.9852
rwrist -17.1566
rhand -16.345 -22.2154
rfingers 7.12502
rthumb 9.86731 -51.9642
lclavicle 1.19271e-014 2.46493e-014
lhumerus -24.5403 0.632341 81.6157
lradius 20.3626
lwrist -4.45679
lhand -12.2903 -7.70732
lfingers 7.12502
lthumb 13.7772 21.8165
rfemur -23.054 -3.37959 29.0904
rtibia 33.4621
rfoot -14.6762 -15.6095
rtoes 13.6596
lfemur -19.8304 9.7043 -12.549
ltibia 31.6449
lfoot -20.8425 22.3577
ltoes 15.7332
4
root 25.2306 18.2457 20.446 174.583 -55.1083 -163.973
lowerback 10.9252 -1.37779 -2.49485
upperback 1.96132 -2.11826 2.76165
thorax -3.87796 -1.06151 4.59679
lowerneck 4.6174 -17.2295 -13.5255
upperneck 9.47278 -27.2651 21.3548
head 7.01161 -13.5861 6.59187
rclavicle -7.41467e-014 1.35174e-014
rhumerus -25.4627 0.357861 -86.9245
rradius 40.2064
rwrist -16.8945
rhand -16.3874 -22.0357
rfingers 7.12502
rthumb 9.82643 -51.7864
lclavicle -7.41467e-014 1.35174e-014
lhumerus -24.1441 1.70442 81.0222
lradius 19.7862
lwrist -5.45816
lhand -12.0901 -7.85248
lfingers 7.12502
lthumb 13.9701 21.6581
rfemur -23.0865 -4.30784 28.5374
rtibia 33.9645
rfoot -15.2102 -15.4758
rtoes 14.9668
lfemur -20.1585 10.0618 -13.2649
ltibia 31.6272
lfoot -20.8945 22.6624
ltoes 15.8272
5
root 25.2498 18.2393 20.4486 174.771 -54.5756 -164.345
lowerback 10.8323 -1.36279 -2.36442
upperback 2.00244 -2.08713 2.65015
thorax -3.79556 -1.0504 4.39571
lowerneck 4.847 -17.291 -13.5131
upperneck 9.48555 -27.4713 21.5716
head 7.04854 -13.7046 6.64393
rclavicle 1.60817e-013 -5.40694e-014
rhumerus -25.6552 -0.0745714 -86.7756
rradius 39.3329
rwrist -16.3138
rhand -17.3973 -22.0932
rfingers 7.12502
rthumb 8.85192 -51.8876
lclavicle 1.60817e-013 -5.40694e-014
lhumerus -23.7446 2.646 80.3515
lradius 19.3503
lwrist -6.26064
lhand -12.5274 -7.61639
lfingers 7.12502
lthumb 13.5487 21.9228
rfemur -22.5395 -5.23503 28.4219
rtibia 34.4396
rfoot -15.7582 -15.3078
rtoes 16.5815
lfemur -19.9365 10.5189 -13.3603
ltibia 31.5754
lfoot -20.9182 22.726
ltoes 16.1414
6
root 25.2802 18.2247 20.4541 174.569 -54.1984 -164.441
lowerback 11.0817 -1.4257 -2.23578
upperback 2.03142 -2.16431 2.62299
thorax -3.90201 -1.09007 4.31432
lowerneck 5.04449 -17.3239 -13.371
upperneck 9.42043 -27.5575 21.612
head 6.9969 -13.7645 6.64814
rclavicle -4.55217e-014 -3.18055e-015
rhumerus -25.8682 -0.650513 -86.5952
rradius 38.3838
rwrist -15.7494
rhand -17.7781 -22.2394
rfingers 7.12502
rthumb 8.48453 -52.049
lclavicle -4.55217e-014 -3.18055e-015
lhumerus -23.4351 4.0602 79.5297
lradius 18.9898
lwrist -7.27342
lhand -13.049 -7.72371
lfingers 7.12502
lthumb 13.0459 21.8483
rfemur -21.9058 -6.04558 28.4159
rtibia 34.8615
rfoot -16.1271 -15.5382
rtoes 17.8306
lfemur -19.6904 10.8031 -13.2392
ltibia 31.5974
lfoot -20.5796 22.9577
ltoes 15.4203
7
root 25.3108 18.2218 20.4597 175.041 -53.5423 -164.979
lowerback 10.9809 -1.37076 -2.38422
upperback 1.99843 -2.10639 2.55789
thorax -3.88303 -1.05823 4.31874
lowerneck 4.94241 -17.4019 -13.1914
upperneck 9.60214 -27.6978 21.4666
head 7.04949 -13.8191 6.54489
rclavicle -3.81667e-014 6.04305e-014
rhumerus -25.8896 -1.54152 -86.3087
rradius 37.422
rwrist -15.4631
rhand -17.3261 -22.4981
rfingers 7.12502
rthumb 8.92064 -52.2895
lclavicle -3.81667e-014 6.04305e-014
lhumerus -23.1598 5.3582 78.8359
lradius 18.737
lwrist -8.01269
lhand -13.1302 -7.96186
lfingers 7.12502
lthumb 12.9677 21.6151
rfemur -21.5651 -6.50351 28.1658
rtibia 35.2189
rfoot -16.131 -15.9343
rtoes 18.3756
lfemur -19.7352 10.9347 -13.4067
ltibia 31.7243
lfoot -20.0335 23.7414
ltoes 13.7219
8
root 25.3369 18.2155 20.4636 175.015 -52.7796 -165.062
lowerback 10.7791 -1.30318 -2.23654
upperback 2.15239 -2.00529 2.59974
thorax -3.62345 -1.02117 4.25298
lowerneck 4.89624 -17.5597 -13.2415
upperneck 9.72447 -28.0354 21.6433
head 7.19606 -13.9741 6.53395
rclavicle -1.76918e-014 2.06736e-014
rhumerus -25.6103 -2.34963 -85.923
rradius 36.3274
rwrist -15.0757
rhand -16.9122 -22.6227
rfingers 7.12502
rthumb 9.32011 -52.3966
lclavicle -1.76918e-014 2.06736e-014
lhumerus -22.7053 5.94803 78.4711
lradius 18.718
lwrist -7.94879
lhand -13.221 -7.59108
lfingers 7.12502
lthumb 12.8802 21.9915
rfemur -20.9769 -7.08116 28.1836
rtibia 35.5341
rfoot -16.0574 -16.2663
rtoes 18.1358
lfemur -19.5914 11.1273 -13.2208
ltibia 31.8908
lfoot -19.6165 24.3205
ltoes 12.4169
9
root 25.3616 18.2042 20.4654 174.553 -52.0953 -164.814
lowerback 11.0126 -1.34545 -1.87791
upperback 2.14254 -2.02473 2.75576
thorax -3.76785 -1.03467 4.22616
lowerneck 4.57142 -17.4193 -13.346
upperneck 10.1004 -27.837 21.3107
head 7.29421 -13.8505 6.43992
rclavicle 9.08446e-014 -4.77083e-015
rhumerus -25.7466 -2.81682 -85.4706
rradius 35.2235
rwrist -14.5074
rhand -16.693 -22.5978
rfingers 7.12502
rthumb 9.53158 -52.3623
lclavicle 9.08446e-014 -4.77083e-015
lhumerus -22.6878 6.79834 78.0385
lradius 18.7994
lwrist -8.17125
lhand -13.5982 -7.12358
lfingers 7.12502
lthumb 12.5166 22.4815
rfemur -20.1859 -7.93388 28.3776
rtibia 35.7889
rfoot -16.1825 -16.5214
rtoes 17.6474
lfemur -19.2916 11.4007 -12.7807
ltibia 32.0579
lfoot -19.9373 24.4358
ltoes 12.6168
10
root 25.3836 18.1969 20.464 174.422 -51.5544 -164.91
lowerback 11.1869 -1.3592 -1.75832
upperback 2.08015 -2.02806 2.84991
thorax -3.92982 -1.0345 4.26704
lowerneck 4.69765 -17.3973 -13.4447
upperneck 10.1095 -27.8458 21.2951
head 7.28848 -13.8697 6.45873
rclavicle 5.10877e-014 5.56597e-015
rhumerus -26.0095 -3.40692 -84.9555
rradius 34.1625
rwrist -14.1319
rhand -16.8399 -22.4725
rfingers 7.12502
rthumb 9.38978 -52.2433
lclavicle 5.10877e-014 5.56597e-015
lhumerus -22.7339 7.67214 77.5965
lradius 18.8314
lwrist -8.51905
lhand -13.8417 -6.99855
lfingers 7.12502
lthumb 12.2817 22.6208
rfemur -19.487 -9.10463 28.3319
rtibia 35.9937
rfoot -16.2993 -16.6147
rtoes 17.3869
lfemur -19.0712 11.726 -12.6241
ltibia 32.2078
lfoot -20.075 24.5874
ltoes 12.3523
11
root 25.4045 18.1922 20.4624 174.333 -51.0528 -165.077
lowerback 11.3201 -1.34762 -1.56704
upperback 2.04399 -1.99165 2.83624
thorax -4.05143 -1.01642 4.14553
lowerneck 4.92811 -17.3636 -13.0955
upperneck 9.67165 -27.6915 21.2515
head 7.02306 -13.8241 6.46919
rclavicle 6.44062e-014 -4.77083e-015
rhumerus -26.3017 -4.51636 -84.4139
rradius 33.2212
rwrist -13.6716
rhand -17.0304 -22.5353
rfingers 7.12502
rthumb 9.20598 -52.3143
lclavicle 6.44062e-014 -4.77083e-015
lhumerus -22.7086 7.78738 77.2841
lradius 18.9955
lwrist -8.26227
lhand -14.0455 -6.94171
lfingers 7.12502
lthumb 12.0852 22.6893
rfemur -18.7547 -10.2599 28.1604
rtibia 36.1565
rfoot -16.139 -16.7523
rtoes 17.1204
lfemur -18.7773 11.8878 -12.5228
ltibia 32.3105
lfoot -19.9239 24.9214
ltoes 11.6351
12
root 25.4276 18.1914 20.4626 174.529 -50.5434 -165.469
lowerback 11.2223 -1.46969 -1.41982
upperback 2.06266 -2.13928 2.77162
thorax -3.97369 -1.09324 4.0099
lowerneck 4.95336 -17.2637 -13.2383
upperneck 9.61724 -27.6082 21.4262
head 7.03369 -13.7949 6.55623
rclavicle -1.24638e-013 3.18055e-015
rhumerus -26.5452 -5.84141 -83.9953
rradius 32.2747
rwrist -12.5589
rhand -16.824 -22.2127
rfingers 7.12502
rthumb 9.40512 -51.9828
lclavicle -1.24638e-013 3.18055e-015
lhumerus -22.6402 8.24592 76.827
lradius 19.2221
lwrist -8.06931
lhand -14.6058 -7.08276
lfingers 7.12502
lthumb 11.5449 22.5793
rfemur -18.1271 -10.8767 27.7903
rtibia 36.2935
rfoot -16.268 -17.2177
rtoes 18.0166
lfemur -18.5637 11.9522 -12.6127
ltibia 32.3007
lfoot -19.831 25.4059
ltoes 11.0883
13
root 25.4549 18.1902 20.4592 174.857 -49.963 -165.902
lowerback 11.0817 -1.49982 -1.31759
upperback 1.99192 -2.1646 2.6632
thorax -3.97598 -1.10379 3.83729
lowerneck 5.07262 -17.1444 -13.2882
upperneck 9.57205 -27.5445 21.6894
head 7.03599 -13.7828 6.66725
rclavicle -9.74045e-015 1.51076e-014
rhumerus -26.3938 -6.9664 -83.5417
rradius 30.6777
rwrist -11.6481
rhand -16.3279 -21.9587
rfingers 7.12502
rthumb 9.88383 -51.7067
lclavicle -9.74045e-015 1.51076e-014
lhumerus -22.6171 8.69202 76.3087
lradius 19.3884
lwrist -8.03741
lhand -14.841 -7.43815
lfingers 7.12502
lthumb 11.3181 22.2365
rfemur -17.6197 -11.1561 27.4247
rtibia 36.4103
rfoot -16.9453 -17.735
rtoes 20.0484
lfemur -18.4483 12.1308 -12.7364
ltibia 32.202
lfoot -19.5968 25.9837
ltoes 10.3402
14
root 25.4817 18.1886 20.4541 175.089 -49.4629 -166.23
lowerback 10.8166 -1.47029 -1.27035
upperback 2.02383 -2.12108 2.63812
thorax -3.80197 -1.08603 3.76604
lowerneck 4.98386 -17.1724 -12.948
upperneck 9.46245 -27.5431 21.6288
head 6.95782 -13.7759 6.60354
rclavicle 4.21423e-014 -3.18055e-015
rhumerus -26.3714 -8.4496 -82.875
rradius 29.3667
rwrist -10.7361
rhand -15.5839 -22.94
rfingers 7.12502
rthumb 10.6016 -52.6526
lclavicle 4.21423e-014 -3.18055e-015
lhumerus -22.3909 8.83519 76.0563
lradius 19.5973
lwrist -7.69166
lhand -14.6241 -7.86425
lfingers 7.12502
lthumb 11.5273 21.7988
rfemur -17.0997 -11.7457 27.0842
rtibia 36.4857
rfoot -17.6178 -18.1805
rtoes 21.4352
lfemur -18.3224 12.2359 -12.8006
ltibia 32.0947
lfoot -19.6001 26.4148
ltoes 10.3222
15
root 25.5024 18.1869 20.4498 175.301 -49.173 -166.574
lowerback 10.7817 -1.55082 -1.10494
upperback 1.87314 -2.20113 2.62183
thorax -3.94103 -1.12091 3.66887
lowerneck 4.85874 -17.108 -12.6602
upperneck 9.54569 -27.3662 21.2175
head 6.86625 -13.68 6.46494
rclavicle -1.65588e-013 7.95139e-016
rhumerus -26.7214 -9.91719 -82.0684
rradius 28.1114
rwrist -9.71719
rhand -18.4496 -21.8702
rfingers 7.12502
rthumb 7.83643 -51.705
lclavicle -1.65588e-013 7.95139e-016
lhumerus -22.4796 8.85063 75.8686
lradius 19.9359
lwrist -7.17772
lhand -14.7183 -7.98171
lfingers 7.12502
lthumb 11.4364 21.6864
rfemur -16.5301 -12.828 26.651
rtibia 36.5073
rfoot -18.0477 -18.7774
rtoes 21.6377
lfemur -18.1669 12.2549 -12.9192
ltibia 32.005
lfoot -20.0106 26.4509
ltoes 11.2915
